<svg xmlns="http://www.w3.org/2000/svg" width="18.535" height="17.533" viewBox="0 0 18.535 17.533">
  <g id="Iconly_Light_Heart" data-name="Iconly/Light/Heart" transform="translate(0.767 0.783)">
    <g id="Heart">
      <path id="Path_33961" d="M8.286,15.87A31.146,31.146,0,0,1,2.9,11.7,10.648,10.648,0,0,1,.334,7.64C-.629,4.667.5,1.263,3.643.256A5.377,5.377,0,0,1,8.5,1.068h0A5.386,5.386,0,0,1,13.35.256C16.5,1.263,17.63,4.667,16.667,7.64A10.648,10.648,0,0,1,14.1,11.7,31.146,31.146,0,0,1,8.715,15.87L8.5,16Z" transform="translate(0 0)" fill="none" stroke="#191919" stroke-linecap="round" stroke-linejoin="round" stroke-miterlimit="10" stroke-width="1.5"/>
      <path id="Path_33964" d="M0,0A2.476,2.476,0,0,1,1.715,2.153" transform="translate(11.846 3.603)" fill="none" stroke="#191919" stroke-linecap="round" stroke-linejoin="round" stroke-miterlimit="10" stroke-width="1.5"/>
    </g>
  </g>
</svg>
