<svg id="svgexport-6_-_2022-09-07T230540.514" data-name="svgexport-6 - 2022-09-07T230540.514" xmlns="http://www.w3.org/2000/svg" width="14.669" height="14.669" viewBox="0 0 14.669 14.669">
  <path id="Path_2641" data-name="Path 2641" d="M7.335,0A7.335,7.335,0,1,1,0,7.335,7.335,7.335,0,0,1,7.335,0ZM.991,9.9l2.086.36a10.945,10.945,0,0,1-.384-2.685H.5A6.8,6.8,0,0,0,.991,9.9ZM14.174,7.579h-2.2a10.945,10.945,0,0,1-.384,2.685l2.086-.36a6.8,6.8,0,0,0,.5-2.325Zm-.5-2.814-2.086-.36a10.945,10.945,0,0,1,.384,2.685h2.2a6.8,6.8,0,0,0-.5-2.325ZM7.09,3.925a16.819,16.819,0,0,0-2.621.239l-.863.149A10.494,10.494,0,0,0,3.182,7.09H7.09Zm-2.7-.243a17.33,17.33,0,0,1,2.7-.246V.5c-1.4.135-2.619,1.418-3.309,3.286Zm3.193-.246a17.327,17.327,0,0,1,2.7.246l.605.1C10.2,1.919,8.981.636,7.579.5Zm2.621.728a16.814,16.814,0,0,0-2.621-.239V7.09h3.908a10.494,10.494,0,0,0-.424-2.776Zm1.287,3.414H7.579v3.165A16.819,16.819,0,0,0,10.2,10.5l.863-.149a10.494,10.494,0,0,0,.424-2.776Zm-1.2,3.407a17.388,17.388,0,0,1-2.7.248v2.934c1.4-.135,2.619-1.418,3.309-3.286Zm-3.193.248a17.386,17.386,0,0,1-2.7-.248l-.605-.1c.69,1.868,1.908,3.152,3.309,3.286ZM4.469,10.5a16.815,16.815,0,0,0,2.621.239V7.579H3.182a10.494,10.494,0,0,0,.424,2.776ZM2.693,7.09a10.945,10.945,0,0,1,.384-2.685l-2.086.36A6.8,6.8,0,0,0,.5,7.09ZM1.239,4.226l2-.345A6.742,6.742,0,0,1,5.183.837,6.878,6.878,0,0,0,1.239,4.226ZM9.486.837a6.742,6.742,0,0,1,1.945,3.044l2,.345A6.878,6.878,0,0,0,9.486.837Zm3.945,9.606-2,.345a6.742,6.742,0,0,1-1.945,3.044,6.878,6.878,0,0,0,3.945-3.389ZM5.183,13.832a6.742,6.742,0,0,1-1.945-3.044l-2-.345a6.878,6.878,0,0,0,3.945,3.389Zm0,0" fill="#4c4c4c"/>
</svg>
