<svg id="svgexport-6_-_2022-08-30T194344.774" data-name="svgexport-6 - 2022-08-30T194344.774" xmlns="http://www.w3.org/2000/svg" width="97.651" height="104.133" viewBox="0 0 97.651 104.133">
  <g id="Group_2636" data-name="Group 2636">
    <g id="Group_2635" data-name="Group 2635">
      <g id="Group_2634" data-name="Group 2634">
        <circle id="Ellipse_1" data-name="Ellipse 1" cx="4" cy="4" r="4" transform="translate(48.52 66)" fill="#1e9a8d"/>
        <path id="Path_2617" data-name="Path 2617" d="M82.851,96H32.208a8.145,8.145,0,0,1-8.135-8.135V54.507a8.145,8.145,0,0,1,8.135-8.135H90.783a8.281,8.281,0,0,1,2.247.25A4.068,4.068,0,0,0,95.27,38.8a16.164,16.164,0,0,0-4.488-.564H85.894V23.891C85.894,10.717,74.945,0,61.488,0S37.082,10.717,37.082,23.891V38.236H32.208A16.289,16.289,0,0,0,15.937,54.507V87.862a16.289,16.289,0,0,0,16.271,16.271H82.851a4.068,4.068,0,0,0,0-8.136ZM45.217,23.891a16.279,16.279,0,0,1,32.542,0V38.236H45.217Z" transform="translate(-15.937)" fill="#1e9a8d"/>
        <circle id="Ellipse_2" data-name="Ellipse 2" cx="4" cy="4" r="4" transform="translate(33.52 66)" fill="#1e9a8d"/>
        <path id="Path_2618" data-name="Path 2618" d="M382.89,275.28a14.446,14.446,0,0,0-28.89.166,4.068,4.068,0,1,0,8.135,0,6.31,6.31,0,0,1,12.62,0q0,.056,0,.11a6.308,6.308,0,0,1-3.837,5.7,10.819,10.819,0,0,0-6.543,9.986v3.518a4.068,4.068,0,1,0,8.135,0v-3.518a2.7,2.7,0,0,1,1.6-2.5,14.432,14.432,0,0,0,8.779-13.3Q382.894,275.362,382.89,275.28Z" transform="translate(-285.243 -207.916)" fill="#1e9a8d"/>
        <circle id="Ellipse_3" data-name="Ellipse 3" cx="4" cy="4" r="4" transform="translate(78.52 96)" fill="#1e9a8d"/>
        <circle id="Ellipse_4" data-name="Ellipse 4" cx="4" cy="4" r="4" transform="translate(18.52 66)" fill="#1e9a8d"/>
      </g>
    </g>
  </g>
</svg>
